<?xml version="1.0" encoding="utf-8"?>
<!-- Uploaded to: SVG Repo, www.svgrepo.com, Generator: SVG Repo Mixer Tools -->
<svg width="800px" height="800px" viewBox="0 0 64 64" fill="none" xmlns="http://www.w3.org/2000/svg">
<g clip-path="url(#clip0_14_1983)">
<path d="M25.926 53.099V47.174C25.926 45.563 26.5659 44.0179 27.705 42.8787C28.844 41.7394 30.389 41.0993 32 41.099V41.099C32.7977 41.099 33.5876 41.2561 34.3246 41.5615C35.0616 41.8668 35.7313 42.3143 36.2953 42.8784C36.8593 43.4425 37.3067 44.1122 37.6119 44.8493C37.9171 45.5863 38.0741 46.3763 38.074 47.174V53.099" stroke="#000000" stroke-width="4" stroke-linecap="round" stroke-linejoin="round"/>
<path d="M12.8 24.47V48.599C12.8 49.7925 13.2741 50.9371 14.118 51.781C14.9619 52.6249 16.1065 53.099 17.3 53.099H25.931" stroke="#000000" stroke-width="4" stroke-linecap="round" stroke-linejoin="round"/>
<path d="M38.079 53.099H46.7C47.8935 53.099 49.0381 52.6249 49.882 51.781C50.7259 50.9371 51.2 49.7925 51.2 48.599V26.549C51.1992 25.8505 51.0362 25.1618 50.7239 24.5371C50.4115 23.9123 49.9583 23.3687 49.4 22.949" stroke="#000000" stroke-width="4" stroke-linecap="round" stroke-linejoin="round"/>
<path d="M8 28.194L29.28 11.927C30.0625 11.329 31.0191 11.0033 32.004 10.9995C32.9888 10.9958 33.9479 11.3141 34.735 11.906L56 27.9" stroke="#426AB2" stroke-width="4" stroke-linecap="round" stroke-linejoin="round"/>
<path d="M12.8 24.527V16.697C12.8 16.1666 13.0107 15.6579 13.3858 15.2828C13.7608 14.9077 14.2696 14.697 14.8 14.697H18C18.5304 14.697 19.0391 14.9077 19.4142 15.2828C19.7893 15.6579 20 16.1666 20 16.697V18.73" stroke="#426AB2" stroke-width="4" stroke-linecap="round" stroke-linejoin="round"/>
</g>
<defs>
<clipPath id="clip0_14_1983">
<rect width="51.999" height="46.1" fill="white" transform="translate(6 9)"/>
</clipPath>
</defs>
</svg>